<svg width="401px" height="543px" viewBox="0 0 401 543" version="1.1" xmlns="http://www.w3.org/2000/svg" xmlns:xlink="http://www.w3.org/1999/xlink">
    <defs>
        <filter x="-3.3%" y="-2.6%" width="106.6%" height="105.3%" filterUnits="objectBoundingBox" id="filter-1">
            <feOffset dx="0" dy="2" in="SourceAlpha" result="shadowOffsetOuter1"></feOffset>
            <feGaussianBlur stdDeviation="2" in="shadowOffsetOuter1" result="shadowBlurOuter1"></feGaussianBlur>
            <feColorMatrix values="0 0 0 0 0   0 0 0 0 0   0 0 0 0 0  0 0 0 0.5 0" type="matrix" in="shadowBlurOuter1" result="shadowMatrixOuter1"></feColorMatrix>
            <feMerge>
                <feMergeNode in="shadowMatrixOuter1"></feMergeNode>
                <feMergeNode in="SourceGraphic"></feMergeNode>
            </feMerge>
        </filter>
    </defs>
    <g id="Page-1" stroke="none" stroke-width="1" fill="none" fill-rule="evenodd">
        <g id="mango" transform="translate(5.000000, 4.000000)">
            <g id="gopher" filter="url(#filter-1)">
                <path d="M4.634,287.493 C5.398,303.244 21.133,295.956 28.26,291.032 C35.025,286.357 37.003,290.243 37.597,281.017 C37.986,274.953 38.685,268.889 38.341,262.801 C28.111,261.874 16.984,264.31 8.597,270.403 C4.277,273.542 -3.823,283.561 4.634,287.493" id="Path" stroke="#000000" stroke-width="3" fill="#F6D2A2" stroke-linecap="round"></path>
                <path d="M4.634,287.493 C6.924,286.641 9.351,286.036 10.905,283.965" id="Path" stroke="#000000" stroke-width="3" fill="#C6B198" stroke-linecap="round"></path>
                <path d="M40.997,99.853 C-19.3,82.897 25.536,6.189 73.956,37.74 L40.997,99.853 Z" id="Path" stroke="#000000" stroke-width="3" fill="#E3CF57" stroke-linecap="round"></path>
                <path d="M308.895,31.984 C356.622,-1.539 399.751,74.095 344.283,93.125 L308.895,31.984 Z" id="Path" stroke="#000000" stroke-width="3" fill="#E3CF57" stroke-linecap="round"></path>
                <path d="M319.161,481.343 C331.284,488.844 353.443,511.525 335.257,522.523 C317.783,538.522 308.003,504.962 292.666,500.312 C299.271,491.342 307.643,483.163 319.161,481.343 Z" id="Path" stroke="#000000" stroke-width="3" fill="#F6D2A2" stroke-linecap="round"></path>
                <path d="M335.257,522.522 C332.561,517.161 331.656,510.904 327.155,506.583" id="Path" stroke="#000000" stroke-width="3" stroke-linecap="round"></path>
                <path d="M102.579,506.975 C88.35,509.177 80.341,522.014 68.479,528.533 C57.301,535.198 53.025,526.399 52.018,524.613 C50.266,523.814 50.413,525.357 47.709,522.634 C37.347,506.28 58.506,494.326 69.524,486.202 C84.87,483.1 94.487,496.404 102.579,506.975 Z" id="Path" stroke="#000000" stroke-width="3" fill="#F6D2A2" stroke-linecap="round"></path>
                <path d="M52.019,524.612 C52.561,518.379 57.503,514.205 59.857,508.935" id="Path" stroke="#000000" stroke-width="3" stroke-linecap="round"></path>
                <path d="M43.513,78.667 C35.558,74.459 29.722,68.744 34.588,59.543 C39.093,51.025 47.462,51.95 55.418,56.158 L43.513,78.667 Z" id="Path" fill="#000000" fill-rule="nonzero"></path>
                <path d="M331.716,70.667 C339.671,66.459 345.507,60.744 340.641,51.543 C336.136,43.025 327.767,43.95 319.811,48.158 L331.716,70.667 Z" id="Path" fill="#000000" fill-rule="nonzero"></path>
                <path d="M386.475,285.493 C385.711,301.244 369.976,293.956 362.849,289.032 C356.084,284.357 354.106,288.243 353.512,279.017 C353.123,272.953 352.424,266.889 352.768,260.801 C362.998,259.874 374.125,262.31 382.512,268.403 C386.831,271.542 394.932,281.561 386.475,285.493" id="Path" stroke="#000000" stroke-width="3" fill="#F6D2A2" stroke-linecap="round"></path>
                <path d="M386.475,285.493 C384.185,284.641 381.758,284.036 380.204,281.965" id="Path" stroke="#000000" stroke-width="3" fill="#C6B198" stroke-linecap="round"></path>
                <path d="M335.964,66.753 C362.442,131.759 353.026,201.857 357.064,270.559 C360.532,329.551 368.221,397.704 340.854,452.371 C312.064,509.885 240.124,524.353 180.854,522.234 C134.299,520.568 78.06,505.38 51.785,462.845 C20.959,412.945 35.553,338.747 37.792,283.223 C40.444,217.452 19.977,151.481 41.584,87.122 C63.999,20.359 124.451,5.271 189.512,0.124 C249.877,0.124 306.465,8.757 335.964,66.753 Z" id="Path" stroke="#000000" stroke-width="3" fill="#E3CF57" stroke-linecap="round"></path>
                <path d="M200.169,81.16 C211.007,144.163 313.991,127.505 299.199,63.963 C285.935,6.983 196.567,22.755 200.169,81.16" id="Path" stroke="#000000" stroke-width="2.9081" fill="#FFFFFF" stroke-linecap="round"></path>
                <path d="M77.103,91.35 C91.15,146.2 178.967,132.157 175.657,77.137 C171.691,11.242 63.673,23.957 77.103,91.35" id="Path" stroke="#000000" stroke-width="2.8214" fill="#FFFFFF" stroke-linecap="round"></path>
                <path d="M212.594,156.762 C212.64,164.953 214.455,174.149 212.906,182.863 C210.815,186.815 206.713,187.233 203.177,188.83 C198.287,188.063 194.175,184.852 192.214,180.278 C190.959,170.332 192.682,160.702 192.999,150.752 L212.594,156.762 Z" id="Path" stroke="#000000" stroke-width="3" fill="#FFFFFF" stroke-linecap="round"></path>
                <g id="Group" transform="translate(86.000000, 66.000000)">
                    <ellipse id="Oval" fill="#000000" fill-rule="nonzero" cx="15.324" cy="16.404" rx="14.829" ry="16.062"></ellipse>
                    <ellipse id="Oval" fill="#FFFFFF" cx="22.069" cy="20.029" rx="3.496" ry="4.082"></ellipse>
                </g>
                <g id="Group" transform="translate(210.000000, 62.000000)">
                    <ellipse id="Oval" fill="#000000" fill-rule="nonzero" cx="15.571" cy="16.404" rx="14.582" ry="16.062"></ellipse>
                    <ellipse id="Oval" fill="#FFFFFF" cx="22.204" cy="20.029" rx="3.438" ry="4.082"></ellipse>
                </g>
                <path d="M170.217,155.87 C163.747,171.55 173.825,202.905 191.38,179.778 C190.125,169.832 191.848,160.202 192.165,150.252 L170.217,155.87 Z" id="Path" stroke="#000000" stroke-width="3" fill="#FFFFFF" stroke-linecap="round"></path>
                <g id="Group" transform="translate(154.000000, 107.000000)">
                    <path d="M18.431,18.673 C6.372,19.701 -3.485,34.039 2.785,45.382 C11.088,60.406 29.621,44.053 41.164,45.585 C54.449,45.857 65.334,59.632 76.004,48.075 C87.871,35.221 70.895,22.702 57.627,17.105 L18.431,18.673 Z" id="Path" stroke="#231F20" stroke-width="3" fill="#F6D2A2" stroke-linecap="round"></path>
                    <path d="M16.913,18.045 C16.02,-2.846 55.851,-5.458 60.555,12.029 C65.247,29.475 18.874,33.527 16.913,18.045 C15.348,5.682 16.913,18.045 16.913,18.045 Z" id="Path" fill="#000000" fill-rule="nonzero"></path>
                </g>
            </g>
            <g id="MongoDB_LogoStacked_Black_RGB" transform="translate(117.000000, 239.000000)" fill="#21313C">
                <path d="M113.807988,139.36412 C114.559935,139.986944 116.061143,140.242747 117.385107,140.242747 C119.101157,140.242747 120.782295,139.914652 122.428522,138.377055 C124.074748,136.839458 125.253693,134.387089 125.253693,130.541707 C125.253693,126.84369 123.894818,123.840788 121.104558,122.083535 C119.530841,121.060324 117.492528,120.657157 115.169549,120.657157 C114.490111,120.657157 113.807988,120.693303 113.415902,120.876813 C113.257657,121.006578 113.144533,121.186168 113.093639,121.388419 C113.023815,122.047389 113.023815,127.063346 113.023815,130.030102 C113.023815,133.069149 113.023815,137.314918 113.093639,137.815401 C113.131236,138.254715 113.343393,139.024903 113.807988,139.352998 M106.677921,119.008341 C107.284849,119.008341 109.5944,119.11956 110.66861,119.11956 C112.672011,119.11956 114.065799,119.008341 117.820162,119.008341 C120.967596,119.008341 123.612838,119.886968 125.508818,121.571929 C127.796885,123.621132 129,126.476668 129,129.955029 C129,134.898694 126.819354,137.754231 124.638708,139.36412 C122.455377,141.049081 119.630205,142 115.588491,142 C113.440071,142 109.760903,141.927708 106.683292,141.891562 L106.643009,141.891562 C106.500676,141.613515 106.911561,140.456842 107.15863,140.426257 C107.988457,140.328941 108.214041,140.295575 108.600756,140.131528 C109.247968,139.853482 109.406414,139.511485 109.473552,138.304763 C109.580973,136.033124 109.546061,133.324952 109.546061,130.241417 C109.546061,128.04485 109.580973,123.760155 109.508464,122.406069 C109.403728,121.271639 108.939132,120.97691 108.007255,120.757253 C107.346135,120.612949 106.678372,120.503443 106.00654,120.429159 C105.934031,120.209502 106.484563,119.219657 106.664493,119" id="Shape" fill-rule="nonzero"></path>
                <path d="M137.107023,120.790369 C136.964027,120.826454 136.783258,121.192855 136.783258,121.376056 C136.748183,122.688993 136.710411,126.125392 136.710411,128.501448 C136.729999,128.594005 136.80093,128.66589 136.891179,128.684649 C137.357941,128.720734 138.510006,128.756819 139.478603,128.756819 C140.843814,128.756819 141.637038,128.573618 142.066027,128.354333 C143.215394,127.771422 143.752305,126.491793 143.752305,125.10391 C143.752305,121.922882 141.59387,120.715424 138.399386,120.715424 C137.967431,120.709603 137.535605,120.734645 137.107023,120.790369 M145.263209,135.410331 C145.263209,132.193217 142.961778,130.366763 138.758226,130.366763 C138.147401,130.342625 137.535733,130.354685 136.926254,130.402848 C136.818332,130.438933 136.710411,130.511103 136.710411,130.586049 C136.710411,132.887159 136.675336,136.578928 136.783258,138.041757 C136.856105,138.663529 137.287792,139.540671 137.824703,139.796042 C138.399386,140.123582 139.694447,140.198528 140.590197,140.198528 C143.0697,140.198528 145.263209,138.771784 145.263209,135.410331 M130.618228,119 C130.941993,119 131.8971,119.108255 134.33883,119.108255 C136.640261,119.108255 138.507308,119.036085 140.735892,119.036085 C143.501387,119.036085 147.311025,120.057567 147.311025,124.310041 C147.311025,126.391866 145.872967,128.07398 144.005921,128.878952 C143.897999,128.915037 143.897999,128.987207 144.005921,129.023292 C146.663494,129.72001 149,131.399348 149,134.616462 C149,137.758629 147.095181,139.732199 144.329686,140.975742 C142.640711,141.744629 140.552425,142 138.43446,142 C136.815634,142 132.498764,141.816799 130.070525,141.852884 C129.819607,141.744629 130.302556,140.573256 130.515702,140.392831 C131.063659,140.372276 131.607201,140.283736 132.134528,140.129133 C132.997902,139.909848 133.100428,139.623944 133.213746,138.308231 C133.283895,137.175718 133.283895,133.117548 133.283895,130.230751 C133.283895,126.283611 133.321668,123.616099 133.283895,122.300386 C133.24882,121.276128 132.88998,120.945812 132.204677,120.765387 C131.665069,120.654357 130.76662,120.546102 130.046242,120.435071 C129.865473,120.251871 130.418572,119.155443 130.599341,119.011103" id="Shape" fill-rule="nonzero"></path>
                <path d="M0.345636277,142.994537 C0.246889387,142.764133 0.207376988,142.513776 0.230523048,142.265161 C0.221231631,142.096981 0.260110502,141.929592 0.342828637,141.781643 C0.826153393,141.718026 1.30521494,141.626811 1.77753254,141.508468 C2.44294316,141.336369 2.69001545,140.992169 2.72370713,140.172646 C2.83039744,138.233109 2.83601272,134.597159 2.79670576,132.037516 L2.79670576,131.963759 C2.85038589,131.621289 2.72005935,131.27593 2.45136607,131.048625 C1.83968651,130.671726 1.1747592,130.38368 0.477595344,130.19359 C0.163139694,130.103442 -0.00812632934,129.942269 0.000296589853,129.753779 C0.00871950905,129.565289 0.20525429,129.344017 0.615169691,129.267529 C1.69611099,129.160991 4.54586531,128.502641 5.64926773,128 C5.76746599,128.147139 5.82187436,128.333401 5.80088027,128.519031 C5.80088027,128.631033 5.7812268,128.748498 5.76999624,128.874158 C5.7391122,129.234748 5.70261288,129.644509 5.70261288,130.051539 C5.72233643,130.187311 5.84245243,130.287818 5.98337686,130.286469 C6.05508064,130.284759 6.12339292,130.256413 6.17429636,130.207248 C8.29687199,128.590056 10.1976441,128.021854 11.1747027,128.021854 C12.7806726,128.021854 14.0300723,128.76762 14.9959004,130.305591 C15.0426645,130.380135 15.1251623,130.426443 15.2148963,130.428519 C15.2961911,130.42753 15.3717827,130.387692 15.4170464,130.321981 C17.3823942,128.882353 19.3028197,128.021854 20.5971417,128.021854 C23.657469,128.021854 25.4852424,130.250956 25.4852424,133.985249 C25.4852424,135.058824 25.4852424,136.4165 25.4655889,137.68676 C25.4655889,138.801311 25.4459355,139.844837 25.4459355,140.566017 C25.4994,140.903373 25.7274367,141.190259 26.049578,141.325442 C26.6648979,141.554391 27.3072065,141.707645 27.9615807,141.781643 L27.9924647,141.781643 C28.0235315,142.195662 27.9582741,142.61117 27.8015452,142.997268 C27.5965875,142.997268 27.3158235,142.98361 26.9592533,142.964487 C26.3219191,142.934438 25.4515508,142.89073 24.4323775,142.89073 C22.3996464,142.89073 21.3439738,142.928975 20.321993,142.994537 C20.2376448,142.595323 20.2376448,142.183588 20.321993,141.784374 C20.7407442,141.716797 21.1551024,141.625584 21.5629697,141.5112 C22.2087269,141.303588 22.4052616,141.019486 22.433338,140.180841 C22.4501839,139.588053 22.5652971,134.351302 22.3575318,133.108359 C22.1618412,131.460738 20.6914628,130.239934 18.9883641,130.311054 C17.7594366,130.377237 16.5820504,130.813504 15.6191964,131.559461 C15.5417351,131.644869 15.4979561,131.754263 15.4956603,131.868148 L15.4956603,131.892734 C15.6416575,132.564742 15.6416575,133.346021 15.6416575,134.528865 C15.6416575,135.203606 15.6416575,135.922054 15.6416575,136.632307 C15.6416575,138.074668 15.6248117,139.437807 15.6416575,140.456747 C15.6416575,141.158805 16.0796493,141.325442 16.4306043,141.462029 L16.9219412,141.57403 C17.2167434,141.642324 17.5199685,141.713349 17.9719985,141.784374 C18.0397973,142.082847 18.0340247,142.392695 17.9551527,142.688581 C17.9370373,142.800227 17.8917978,142.906054 17.8231936,142.997268 C16.7001377,142.959024 15.5321596,142.926243 13.8588063,142.926243 C13.3506235,142.926243 12.5223698,142.948097 11.7895758,142.967219 C11.1971638,142.98361 10.6384435,142.997268 10.3183726,143 C10.233343,142.801365 10.1958978,142.586504 10.2088747,142.371699 C10.1909066,142.170225 10.2307563,141.967852 10.3239879,141.787106 L10.7732102,141.707886 C11.1662798,141.639592 11.5060042,141.579494 11.8316904,141.503005 C12.3932184,141.3391 12.5925608,141.038609 12.6346754,140.352941 C12.7413657,138.75214 12.8255949,134.140958 12.5925608,132.977235 C12.1966836,131.125114 11.1129346,130.185394 9.37219801,130.185394 C8.35021715,130.185394 7.06151051,130.663449 6.00303033,131.431069 C5.7977857,131.624884 5.68484914,131.893158 5.69138232,132.171371 C5.69138232,132.71772 5.69138232,133.37607 5.69138232,134.083591 C5.69138232,136.400109 5.67453649,139.273903 5.73349692,140.530504 C5.73530346,141.044378 6.13010676,141.476525 6.65440275,141.538518 C6.81724586,141.582225 7.09800983,141.628665 7.42369604,141.680568 C7.60900026,141.710617 7.81395796,141.743398 8.02453094,141.781643 C8.0923623,142.189565 8.05866428,142.607366 7.92626355,143 C7.60057734,143 7.2018925,142.978146 6.74143958,142.959024 C6.04233729,142.928975 5.16916133,142.89073 4.17806451,142.89073 C3.01008638,142.89073 2.19587086,142.928975 1.5416908,142.959024 C1.103699,142.978146 0.72466764,142.997268 0.345636277,143" id="Path" fill-rule="nonzero"></path>
                <path d="M36.7512142,129.499197 C36.1429316,129.485364 35.5443662,129.652243 35.0323799,129.978404 C33.7857528,130.73068 33.143551,132.235231 33.143551,134.443869 C33.143551,138.577369 35.2320561,141.466 38.2191042,141.466 C39.0226111,141.493207 39.8069178,141.218848 40.4155424,140.697662 C41.3329736,139.953418 41.8213708,138.435481 41.8213708,136.309834 C41.8213708,132.235231 39.7814355,129.499197 36.7458176,129.499197 M37.3205613,143 C31.9239072,143 30,139.069963 30,135.394253 C30,132.826878 31.0577442,130.819026 33.1462493,129.426914 C34.6070832,128.527979 36.2846024,128.035147 38.003238,128 C42.1235834,128 45,130.944851 45,135.147956 C45,138.009816 43.8505127,140.26932 41.6756611,141.680171 C40.6341069,142.314653 38.8235294,143 37.3205613,143" id="Shape" fill-rule="nonzero"></path>
                <path d="M91.7487862,129.499197 C91.1406598,129.484871 90.5421669,129.65179 90.03057,129.978404 C88.7843913,130.73068 88.1424204,132.232554 88.1424204,134.443869 C88.1424204,138.577369 90.2274771,141.466 93.2161482,141.466 C94.0194072,141.493472 94.8035265,141.21908 95.4117964,140.697662 C96.3288977,139.953418 96.8171192,138.435481 96.8171192,136.312511 C96.8171192,132.237908 94.7779176,129.499197 91.7433915,129.499197 M92.3206258,143 C86.9259126,143 85,139.07264 85,135.394253 C85,132.826878 86.0600611,130.819026 88.1478151,129.426914 C89.6081236,128.527979 91.2850395,128.035147 93.003057,128 C97.1219205,128 100,130.944851 100,135.147956 C100,138.009816 98.8482287,140.26932 96.6741593,141.680171 C95.6329797,142.314653 93.8230534,143 92.3206258,143" id="Shape" fill-rule="nonzero"></path>
                <path d="M75.1418207,128.446257 C73.4968809,128.446257 72.4314085,129.838316 72.4314085,131.986308 C72.4314085,134.134299 73.3473409,136.69021 75.9242353,136.69021 C76.3675145,136.69021 77.1712919,136.481972 77.5691751,136.011296 C78.167335,135.423665 78.5598775,134.208466 78.5598775,132.924806 C78.5598775,130.120721 77.2807766,128.446257 75.1418207,128.446257 M74.9281922,143.279667 C74.4621184,143.273469 74.0023676,143.395268 73.5930138,143.633387 C72.2898796,144.526244 71.6837086,145.419101 71.6837086,146.446029 C71.6746478,147.394093 72.0855294,148.29097 72.7919067,148.865016 C73.7078391,149.695116 74.9281922,150.09733 76.5651209,150.09733 C79.7695491,150.09733 81.190179,148.263122 81.190179,146.446029 C81.190179,145.179484 80.5946894,144.332268 79.371666,143.853035 C78.4317004,143.485052 76.8561898,143.282519 74.9281922,143.282519 M75.1418207,152 C73.2245045,152 71.84393,151.566408 70.660962,150.596531 C69.6774429,149.802979 69.0700921,148.587792 69,147.273277 C69.0123899,146.648097 69.2351638,146.048601 69.6275339,145.58455 C69.9639988,145.179484 70.7357319,144.420698 72.524871,143.10566 C72.5857182,143.07937 72.6239371,143.014376 72.6196918,142.944408 C72.6154466,142.87444 72.5696935,142.81526 72.5061785,142.797581 C71.0321416,142.195687 70.586192,141.205842 70.4526741,140.669557 C70.4497298,140.641729 70.4452717,140.614107 70.4393223,140.586832 C70.3489405,140.36192 70.4275534,140.100252 70.623577,139.973528 C70.8291944,139.816636 71.1576483,139.605545 71.5128058,139.385897 C72.0109067,139.091348 72.4883708,138.758627 72.9414467,138.390347 C72.9928942,138.334877 73.0158128,138.256107 73.0028649,138.179256 C72.9921556,138.102211 72.9474502,138.035353 72.8826988,137.999544 C70.7010173,137.217937 69.6035006,135.486422 69.6035006,132.850639 C69.591868,131.177402 70.3441987,129.603063 71.6196201,128.631675 C72.4954971,127.890005 74.6985415,127 76.1245121,127 L76.2072931,127 C77.673319,127.037084 78.5011296,127.36513 79.6467127,127.81869 C80.2977085,128.069393 80.987172,128.186499 81.6788543,128.163852 C82.8938666,128.163852 83.4252677,127.753081 83.8792283,127.279553 C83.9533854,127.49535 83.9931026,127.722916 83.996724,127.952761 C84.0235581,128.499167 83.8849829,129.040283 83.6015112,129.496006 C83.254095,129.910084 82.7546954,130.141396 82.2342885,130.129279 C82.1809179,130.132263 82.1274377,130.132263 82.0740671,130.129279 C81.7954858,130.107379 81.5193207,130.058688 81.2489268,129.983797 L81.1127386,130.032291 C81.0700129,130.100753 81.0967165,130.177773 81.1314311,130.271908 C81.1406414,130.289954 81.1478126,130.309106 81.152794,130.328959 C81.2500834,130.803623 81.3161139,131.284986 81.3504004,131.769512 C81.3504004,134.53366 80.3303241,135.740301 79.2274667,136.618895 C78.15891,137.476627 76.8890528,138.001855 75.5583964,138.136467 L75.5583964,138.136467 L75.1338097,138.173551 L74.7199044,138.210634 L74.6878601,138.210634 C74.447528,138.284801 73.8199941,138.601438 73.8199941,139.194774 C73.8199941,139.685418 74.1057223,140.295869 75.4569228,140.404267 L76.3327999,140.469877 C78.1165983,140.603948 80.3383352,140.755135 81.4064779,141.148791 C82.8320667,141.685018 83.775059,143.137383 83.7457105,144.751597 C83.7457105,147.233341 82.09543,149.563898 79.3316106,150.990187 C78.0278098,151.655966 76.6002727,151.999177 75.1551725,151.994295" id="Shape" fill-rule="nonzero"></path>
                <path d="M65.9386365,141.591116 C65.1867808,141.525677 64.4516548,141.343622 63.7631176,141.052346 C63.6218366,140.91667 63.5278588,140.74378 63.4936858,140.556678 C63.419162,139.457587 63.419162,136.265374 63.419162,134.172252 C63.419162,132.469739 63.1124683,130.98004 62.3500335,129.915969 C61.4835697,128.696934 60.0172281,127.975399 58.4576031,128.000641 C56.967129,128.000641 54.9836519,128.956958 53.3412642,130.271557 C53.3040023,130.306577 53.0546345,130.540942 53.0546345,130.179966 C53.0546345,129.81899 53.117693,129.121283 53.1520886,128.674104 C53.1839527,128.4303 53.0915209,128.186662 52.9027208,128.016804 C51.8335923,128.515167 48.8239811,129.185935 47.7118582,129.293689 C46.9006963,129.441851 46.694323,130.174578 47.5599445,130.430494 L47.5599445,130.430494 C48.2542975,130.609387 48.9175239,130.881581 49.52909,131.238649 C49.8730456,131.489177 49.8357837,131.842072 49.8357837,132.12762 C49.8730456,134.503596 49.8730456,138.156457 49.7583937,140.144519 C49.7211319,140.923041 49.4918282,141.205896 48.8813071,141.34867 L48.9357667,141.332507 C48.470472,141.441758 47.9985863,141.52452 47.5226826,141.580341 C47.333507,141.758135 47.333507,142.787186 47.5226826,143 C47.9039,143 49.8529815,142.892246 51.4552412,142.892246 C53.6680219,142.892246 54.8145405,143 55.3849334,143 C55.6142371,142.749472 55.6916271,141.793155 55.5397134,141.580341 C55.0119455,141.557202 54.4878177,141.485929 53.9747156,141.367527 C53.3641945,141.224753 53.2094145,140.941898 53.1721527,140.303456 C53.097629,138.635962 53.097629,135.088161 53.097629,132.677165 C53.097629,132.003703 53.2868045,131.683135 53.5161082,131.50534 C54.3985833,130.821892 55.5027059,130.441784 56.6461038,130.4278 C57.4932475,130.398478 58.3220743,130.664208 58.9735364,131.173997 C59.5846477,131.684604 59.966759,132.394183 60.042665,133.159365 C60.1945787,134.50629 60.1573168,137.20014 60.1573168,139.54379 C60.1573168,140.820675 60.042665,141.141243 59.5467957,141.284017 C59.0402577,141.441215 58.514243,141.536286 57.9817979,141.566872 C57.7524942,141.779686 57.8298842,142.773717 57.9817979,142.986531 C58.9735364,142.986531 60.120055,142.878777 61.7997046,142.878777 C63.8978335,142.878777 65.2392602,142.986531 65.7666587,142.986531 C65.9959624,142.736003 66.0733524,141.814706 65.9214387,141.566872" id="Path" fill-rule="nonzero"></path>
                <path d="M154.999339,142.999783 C153.348398,142.999609 152.007937,141.66526 152.000034,140.014189 C151.992202,138.363118 153.319885,137.016053 154.970749,137.000142 C156.621614,136.984232 157.975008,138.305458 157.998958,139.956374 C158.020315,140.762321 157.712588,141.542216 157.146669,142.116397 C156.580749,142.690578 155.805437,143.009532 154.999339,142.999783 Z M154.999339,137.269819 C153.894463,137.262779 152.8943,137.922515 152.465784,138.941024 C152.037268,139.959534 152.264914,141.135938 153.042444,141.921023 C153.819974,142.706108 154.994037,142.945033 156.016513,142.526255 C157.038988,142.107476 157.708216,141.113589 157.71176,140.008597 C157.726672,139.283809 157.447749,138.583818 156.938473,138.067939 C156.429198,137.552059 155.732896,137.264179 155.008042,137.269819 L154.999339,137.269819 Z M155.733288,141.894408 L154.958725,140.22619 L154.335013,140.22619 L154.335013,141.894408 L153.879558,141.894408 L153.879558,138.102477 L154.999339,138.102477 C155.834823,138.102477 156.18004,138.473837 156.18004,139.164334 C156.236745,139.647453 155.907472,140.091185 155.428685,140.176869 L156.229357,141.894408 L155.733288,141.894408 Z M154.335013,139.831621 L154.990636,139.831621 C155.521516,139.831621 155.724585,139.645941 155.724585,139.164334 C155.724585,138.682726 155.530219,138.517355 154.932616,138.517355 L154.335013,138.517355 L154.335013,139.831621 Z" id="Shape" fill-rule="nonzero"></path>
                <path d="M100.174234,40.5988926 C94.8936829,16.8875084 82.43353,9.09115463 81.0809298,6.11035787 C79.6065956,4.00561783 78.1241458,0.275489534 78.1241458,0.275489534 C78.0970938,0.212126941 78.059221,0.101931128 78.0132326,0 C77.8617414,2.09647535 77.7832906,2.91467927 75.8328411,5.03319379 C72.8165427,7.43270763 57.3130395,20.6865091 56.0524161,47.618366 C54.8756539,72.7375017 73.8769813,87.7131128 76.452332,89.6222552 L76.7526093,89.8343822 L76.7526093,89.8178528 C76.7688405,89.9418231 77.5641694,95.7959757 78.1241458,102 L80.1368149,102 C80.6103341,97.6147311 81.3192558,93.2591516 82.2603972,88.9528157 L82.4145936,88.8453747 C83.5650274,88.0073125 84.6611112,87.0944606 85.6960017,86.1125186 L85.8150305,86.0050777 C91.27683,80.8671978 101.094002,68.9825793 100.99932,50.0261445 C100.978134,46.8660259 100.702178,43.7130147 100.174234,40.5988926 L100.174234,40.5988926 Z M77.9023194,75.4345442 C77.9023194,75.4345442 77.9023194,40.193923 79.0601452,40.1994328 C79.9501561,40.1994328 81.1052766,85.6552059 81.1052766,85.6552059 C79.503798,85.4651182 77.9023194,78.17842 77.9023194,75.4345442 Z" id="Shape" fill-rule="nonzero"></path>
            </g>
        </g>
    </g>
</svg>